<?xml version="1.0" standalone="no"?><!DOCTYPE svg PUBLIC "-//W3C//DTD SVG 1.1//EN" "http://www.w3.org/Graphics/SVG/1.1/DTD/svg11.dtd"><svg t="1739424693471" class="icon" viewBox="0 0 1024 1024" version="1.1" xmlns="http://www.w3.org/2000/svg" p-id="2579" xmlns:xlink="http://www.w3.org/1999/xlink" width="16" height="16"><path d="M0 180.705882q0-48.941176 35.764706-84.705882t84.705882-35.764706h722.82353q50.823529 0 85.647058 35.764706T963.764706 180.705882v542.117647q0 48.941176-34.82353 84.705883T843.294118 843.294118h-60.235294v141.17647q0 18.823529-12.235295 29.176471T743.529412 1024q-15.058824 0-22.588236-7.529412l-148.705882-171.294117-451.764706-1.882353q-48.941176 0-84.705882-35.764706T0 722.823529V180.705882m60.235294 542.117647q0 26.352941 17.882353 43.294118t42.352941 16.941177h481.882353l120.470588 150.588235v-150.588235h120.470589q26.352941 0 43.294117-16.941177t16.941177-43.294118V180.705882q0-24.470588-16.941177-42.352941T843.294118 120.470588H120.470588q-24.470588 0-42.352941 17.882353T60.235294 180.705882v542.117647M474.352941 180.705882q56.470588 0 106.352941 21.647059t86.588236 59.294118q36.705882 37.647059 58.352941 86.588235t21.647059 105.411765q0 54.588235-21.647059 103.529412t-58.352941 85.647058q-36.705882 36.705882-86.588236 58.352942T474.352941 722.823529q-56.470588 0-105.411765-21.647058t-85.647058-58.352942Q246.588235 606.117647 225.882353 557.176471t-20.705882-103.529412q0-56.470588 20.705882-105.411765t57.411765-86.588235q36.705882-37.647059 85.647058-59.294118T474.352941 180.705882m0 495.058824q41.411765-16.941176 61.176471-61.176471T564.705882 532.705882h-176.941176q7.529412 37.647059 28.235294 81.882353t58.352941 61.176471m-86.588235-304.941177h176.941176q-11.294118-39.529412-29.17647-80.941176T474.352941 227.764706q-37.647059 16.941176-58.352941 61.17647T387.764706 370.823529m-5.647059 124.235295h188.235294v-86.588236H382.117647q-1.882353 11.294118-1.882353 21.647059V474.352941q0 11.294118 1.882353 20.705883m-126.117647-124.235295h96q7.529412-37.647059 23.529412-78.117647T417.882353 224q-54.588235 15.058824-97.882353 53.647059T256 370.823529m0 161.882353q20.705882 54.588235 64 93.176471t97.882353 53.647059q-26.352941-28.235294-42.352941-67.764706T352 532.705882h-96m278.588235-308.705882q26.352941 28.235294 43.294118 68.705882t22.588235 78.117647h96q-20.705882-54.588235-64-93.17647T534.588235 224m0 455.529412q54.588235-15.058824 97.882353-53.647059t64-93.176471h-96q-5.647059 39.529412-22.588235 79.058824t-43.294118 67.764706m171.294118-184.470588q5.647059-16.941176 5.647059-43.294118 0-20.705882-5.647059-43.294118h-99.764706v86.588236h99.764706m-464.941177-43.294118q0 26.352941 5.647059 43.294118h99.764706q-1.882353-9.411765-1.882353-20.705883v-22.588235-21.647059q0-10.352941 1.882353-21.647059h-99.764706q-5.647059 22.588235-5.647059 43.294118z" p-id="2580"></path></svg>